<svg xmlns="http://www.w3.org/2000/svg" xmlns:xlink="http://www.w3.org/1999/xlink" width="500" zoomAndPan="magnify" viewBox="0 0 375 374.999991" height="500" preserveAspectRatio="xMidYMid meet" version="1.0"><defs><g/><clipPath id="dcf6df3414"><path d="M 115 75.351562 L 270.929688 75.351562 L 270.929688 205 L 115 205 Z M 115 75.351562 " clip-rule="nonzero"/></clipPath><clipPath id="c51e2226dc"><path d="M 104.429688 129 L 259 129 L 259 235 L 104.429688 235 Z M 104.429688 129 " clip-rule="nonzero"/></clipPath><clipPath id="c425653188"><path d="M 181 138 L 186 138 L 186 143 L 181 143 Z M 181 138 " clip-rule="nonzero"/></clipPath><clipPath id="5dfad0bb5e"><path d="M 176.644531 144.738281 L 186.914062 134.855469 L 203.554688 152.144531 L 193.289062 162.027344 Z M 176.644531 144.738281 " clip-rule="nonzero"/></clipPath><clipPath id="cc5ba89b5a"><path d="M 176.644531 144.738281 L 186.914062 134.855469 L 203.554688 152.144531 L 193.289062 162.027344 Z M 176.644531 144.738281 " clip-rule="nonzero"/></clipPath><clipPath id="af869b490c"><path d="M 176.644531 144.738281 L 186.914062 134.855469 L 203.554688 152.144531 L 193.289062 162.027344 Z M 176.644531 144.738281 " clip-rule="nonzero"/></clipPath><clipPath id="c4b727bfa0"><path d="M 183 142 L 202 142 L 202 162 L 183 162 Z M 183 142 " clip-rule="nonzero"/></clipPath><clipPath id="09dedde05a"><path d="M 176.644531 144.738281 L 186.914062 134.855469 L 203.554688 152.144531 L 193.289062 162.027344 Z M 176.644531 144.738281 " clip-rule="nonzero"/></clipPath><clipPath id="2a5a80040b"><path d="M 176.644531 144.738281 L 186.914062 134.855469 L 203.554688 152.144531 L 193.289062 162.027344 Z M 176.644531 144.738281 " clip-rule="nonzero"/></clipPath><clipPath id="b56a29d3ba"><path d="M 176.644531 144.738281 L 186.914062 134.855469 L 203.554688 152.144531 L 193.289062 162.027344 Z M 176.644531 144.738281 " clip-rule="nonzero"/></clipPath></defs><path fill="#055c03" d="M 188.738281 156.457031 C 187.875 155.585938 187.035156 154.691406 186.214844 153.78125 C 187.035156 154.691406 187.875 155.585938 188.738281 156.457031 " fill-opacity="1" fill-rule="nonzero"/><path fill="#055c03" d="M 186.324219 156.824219 C 187.117188 155.707031 187.894531 154.574219 188.628906 153.414062 C 187.894531 154.574219 187.117188 155.707031 186.324219 156.824219 " fill-opacity="1" fill-rule="nonzero"/><path fill="#055c03" d="M 190.214844 151.691406 C 188.515625 154.078125 186.695312 156.375 184.738281 158.546875 C 186.695312 156.375 188.515625 154.078125 190.214844 151.691406 " fill-opacity="1" fill-rule="nonzero"/><g clip-path="url(#dcf6df3414)"><path fill="#055c03" d="M 193.257812 75.414062 C 150.578125 75.414062 115.976562 110.015625 115.976562 152.695312 C 115.976562 172.53125 123.460938 190.621094 135.746094 204.300781 L 156.332031 184.246094 L 168.867188 196.332031 L 219.890625 129.421875 L 258.5 194.09375 C 266.109375 182.125 270.539062 167.929688 270.539062 152.695312 C 270.539062 110.015625 235.9375 75.414062 193.257812 75.414062 " fill-opacity="1" fill-rule="nonzero"/></g><g clip-path="url(#c51e2226dc)"><path fill="#d97104" d="M 219.890625 129.421875 L 168.867188 196.332031 L 156.332031 184.246094 L 135.746094 204.304688 L 104.414062 234.824219 L 145.59375 216.25 L 146.628906 214.316406 L 158.570312 192.078125 L 179.160156 218.710938 L 200.644531 177.085938 L 208.027344 199.019531 L 221.007812 145.535156 L 250.710938 204.367188 C 253.585938 201.175781 256.183594 197.734375 258.5 194.09375 L 219.890625 129.421875 " fill-opacity="1" fill-rule="nonzero"/></g><g clip-path="url(#c425653188)"><g clip-path="url(#5dfad0bb5e)"><g clip-path="url(#cc5ba89b5a)"><g clip-path="url(#af869b490c)"><path fill="#000000" d="M 185.085938 142.199219 C 185.9375 141.507812 186.054688 140.265625 185.363281 139.417969 C 184.667969 138.574219 183.425781 138.453125 182.574219 139.144531 C 181.738281 139.835938 181.613281 141.082031 182.3125 141.925781 C 182.996094 142.769531 184.246094 142.894531 185.085938 142.199219 " fill-opacity="1" fill-rule="nonzero"/></g></g></g></g><g clip-path="url(#c4b727bfa0)"><g clip-path="url(#09dedde05a)"><g clip-path="url(#2a5a80040b)"><g clip-path="url(#b56a29d3ba)"><path fill="#000000" d="M 184.445312 143.945312 C 184.535156 143.480469 184.75 143.023438 185.164062 142.691406 C 185.6875 142.257812 186.378906 142.175781 186.976562 142.3125 L 191.15625 143.78125 L 194.417969 143.246094 C 194.707031 143.210938 195.011719 143.320312 195.210938 143.570312 C 195.523438 143.949219 195.46875 144.507812 195.085938 144.816406 C 194.972656 144.914062 194.839844 144.957031 194.703125 145.003906 L 191.144531 145.585938 C 191.027344 145.597656 190.914062 145.582031 190.800781 145.554688 L 189.238281 145.003906 L 191.328125 148.464844 L 196.726562 149.023438 C 196.875 149.058594 197.015625 149.128906 197.144531 149.214844 L 201.296875 152.164062 C 201.367188 152.25 201.425781 152.289062 201.484375 152.359375 C 201.960938 152.933594 201.871094 153.769531 201.304688 154.242188 C 200.828125 154.628906 200.191406 154.617188 199.703125 154.3125 L 195.808594 151.554688 L 191.589844 151.285156 L 193.222656 153.929688 C 193.304688 154.050781 193.378906 154.394531 193.421875 154.519531 L 194.652344 159.742188 C 194.75 160.230469 194.605469 160.742188 194.203125 161.074219 C 193.628906 161.550781 192.785156 161.464844 192.316406 160.886719 C 192.183594 160.726562 192.09375 160.507812 192.046875 160.347656 L 190.917969 155.511719 L 185.925781 147.269531 L 185.707031 149.039062 L 187.496094 151.960938 C 187.726562 152.339844 187.6875 152.863281 187.335938 153.15625 C 186.949219 153.472656 186.394531 153.414062 186.074219 153.03125 C 186.050781 153.003906 186.027344 152.96875 186 152.929688 L 183.921875 149.515625 C 183.84375 149.359375 183.804688 149.191406 183.820312 149.015625 Z M 184.445312 143.945312 " fill-opacity="1" fill-rule="nonzero"/></g></g></g></g><path fill="#faeee2" d="M 150.082031 228.496094 L 224.902344 228.496094 C 229.253906 228.496094 233.425781 230.222656 236.503906 233.300781 C 239.578125 236.375 241.308594 240.546875 241.308594 244.898438 L 241.308594 277.707031 C 241.308594 282.058594 239.578125 286.230469 236.503906 289.304688 C 233.425781 292.382812 229.253906 294.109375 224.902344 294.109375 L 150.082031 294.109375 C 141.023438 294.109375 133.679688 286.765625 133.679688 277.707031 L 133.679688 244.898438 C 133.679688 235.839844 141.023438 228.496094 150.082031 228.496094 Z M 150.082031 228.496094 " fill-opacity="1" fill-rule="nonzero"/><g fill="#d97104" fill-opacity="1"><g transform="translate(148.334702, 273.302795)"><g><path d="M 1.609375 -5.09375 C 1.703125 -7.375 2.566406 -9.132812 4.203125 -10.375 C 5.921875 -11.664062 8.363281 -12.3125 11.53125 -12.3125 L 15.03125 -12.3125 L 15.03125 -4.09375 L 17.015625 -4.09375 L 17.015625 0 L 9.703125 0 L 9.703125 -6.703125 C 6.929688 -6.660156 5.566406 -5.550781 5.609375 -3.375 C 5.640625 -1.957031 6.609375 -0.710938 8.515625 0.359375 C 9.015625 0.628906 9.078125 0.765625 8.703125 0.765625 C 8.566406 0.765625 8.375 0.742188 8.125 0.703125 C 4.019531 -0.0664062 1.847656 -2 1.609375 -5.09375 Z M 5.6875 -16.953125 C 5.6875 -17.410156 5.847656 -17.8125 6.171875 -18.15625 C 6.503906 -18.5 6.894531 -18.671875 7.34375 -18.671875 C 7.820312 -18.671875 8.222656 -18.5 8.546875 -18.15625 C 8.878906 -17.8125 9.039062 -17.410156 9.03125 -16.953125 C 9.019531 -16.484375 8.851562 -16.09375 8.53125 -15.78125 C 8.207031 -15.476562 7.8125 -15.328125 7.34375 -15.328125 C 6.894531 -15.328125 6.503906 -15.484375 6.171875 -15.796875 C 5.847656 -16.117188 5.6875 -16.503906 5.6875 -16.953125 Z M 9.578125 -16.953125 C 9.578125 -17.410156 9.742188 -17.8125 10.078125 -18.15625 C 10.410156 -18.5 10.800781 -18.671875 11.25 -18.671875 C 11.726562 -18.671875 12.132812 -18.5 12.46875 -18.15625 C 12.800781 -17.8125 12.957031 -17.410156 12.9375 -16.953125 C 12.914062 -16.484375 12.75 -16.09375 12.4375 -15.78125 C 12.125 -15.476562 11.726562 -15.328125 11.25 -15.328125 C 10.800781 -15.328125 10.410156 -15.484375 10.078125 -15.796875 C 9.742188 -16.117188 9.578125 -16.503906 9.578125 -16.953125 Z M 9.578125 -16.953125 "/></g></g></g><g fill="#d97104" fill-opacity="1"><g transform="translate(168.424505, 273.302795)"><g><path d="M 11.65625 -4.09375 C 11.65625 -5.8125 10.785156 -6.671875 9.046875 -6.671875 L 8.125 -6.671875 L 8.125 -4.09375 Z M 2.28125 -12.328125 L 12.96875 -12.328125 C 15.695312 -12.328125 17.0625 -10.9375 17.0625 -8.15625 L 17.0625 0 L 0 0 L 0 -4.09375 L 2.28125 -4.09375 Z M 2.28125 -12.328125 "/></g></g></g><g fill="#d97104" fill-opacity="1"><g transform="translate(190.153182, 273.302795)"><g><path d="M 7.109375 -5.71875 C 7.109375 -4.632812 7.535156 -4.09375 8.390625 -4.09375 L 9.453125 -4.09375 L 9.453125 0 L 5.640625 0 C 2.953125 0 1.609375 -1.257812 1.609375 -3.78125 L 1.609375 -17.1875 L 7.109375 -17.1875 Z M 7.109375 -5.71875 "/></g></g></g><g fill="#d97104" fill-opacity="1"><g transform="translate(202.685958, 273.302795)"><g><path d="M 12.1875 -6.640625 C 12.445312 -5.742188 12.851562 -4.894531 13.40625 -4.09375 L 16.71875 -4.09375 C 16.789062 -5.789062 16.019531 -6.640625 14.40625 -6.640625 Z M 0 0 L 0 -4.09375 L 7.484375 -4.09375 C 7.390625 -4.394531 7.269531 -4.941406 7.125 -5.734375 L 7.046875 -6.46875 L 7.046875 -6.625 L 5.015625 -6.625 C 3.734375 -6.625 2.789062 -6.410156 2.1875 -5.984375 C 2.175781 -6.222656 2.171875 -6.457031 2.171875 -6.6875 C 2.171875 -9.851562 3.5 -11.726562 6.15625 -12.3125 L 8.359375 -12.328125 C 9.835938 -14.710938 12.1875 -16.09375 15.40625 -16.46875 C 15.90625 -16.46875 16.164062 -16.46875 16.1875 -16.46875 C 16.1875 -16.425781 16.003906 -16.300781 15.640625 -16.09375 C 14.429688 -15.65625 13.457031 -14.765625 12.71875 -13.421875 C 12.570312 -13.066406 12.441406 -12.707031 12.328125 -12.34375 L 14.40625 -12.359375 C 17.09375 -12.359375 19.09375 -11.332031 20.40625 -9.28125 C 21.71875 -7.226562 22.359375 -4.132812 22.328125 0 Z M 0 0 "/></g></g></g><g fill="#ecb378" fill-opacity="1"><g transform="translate(122.919445, 291.75505)"><g><path d="M 3.203125 -6.890625 L 6.21875 -6.890625 L 6.21875 -0.234375 C 6.21875 0.609375 5.785156 1.34375 4.921875 1.96875 C 4.179688 2.519531 3.335938 2.796875 2.390625 2.796875 C 1.992188 2.796875 1.601562 2.710938 1.21875 2.546875 C 1 2.460938 0.890625 2.398438 0.890625 2.359375 C 0.921875 2.347656 1.039062 2.304688 1.25 2.234375 C 2.3125 1.867188 2.960938 1.125 3.203125 0 Z M 3.65625 -9.484375 C 3.65625 -9.734375 3.742188 -9.953125 3.921875 -10.140625 C 4.109375 -10.335938 4.332031 -10.4375 4.59375 -10.4375 C 4.851562 -10.4375 5.078125 -10.335938 5.265625 -10.140625 C 5.453125 -9.953125 5.539062 -9.734375 5.53125 -9.484375 C 5.519531 -9.210938 5.425781 -8.992188 5.25 -8.828125 C 5.070312 -8.660156 4.851562 -8.578125 4.59375 -8.578125 C 4.332031 -8.578125 4.109375 -8.664062 3.921875 -8.84375 C 3.742188 -9.019531 3.65625 -9.234375 3.65625 -9.484375 Z M 3.65625 -9.484375 "/></g></g></g><g fill="#ecb378" fill-opacity="1"><g transform="translate(136.737027, 291.75505)"><g><path d="M 3.78125 -2.296875 L 5.859375 -2.296875 L 5.859375 -3.671875 L 5.015625 -3.671875 C 4.191406 -3.671875 3.78125 -3.210938 3.78125 -2.296875 Z M 10.5625 -2.296875 L 10.5625 0 L 9.96875 0 L 8.8125 -1.390625 L 8.8125 -0.234375 C 8.8125 0.609375 8.382812 1.34375 7.53125 1.96875 C 6.78125 2.519531 5.929688 2.796875 4.984375 2.796875 C 4.597656 2.796875 4.207031 2.710938 3.8125 2.546875 C 3.601562 2.460938 3.5 2.398438 3.5 2.359375 C 3.53125 2.347656 3.644531 2.304688 3.84375 2.234375 C 4.914062 1.867188 5.566406 1.125 5.796875 0 L 0.890625 0 L 0.890625 -4.546875 C 0.890625 -5.847656 1.59375 -6.628906 3 -6.890625 L 8.8125 -6.890625 L 8.8125 -2.296875 Z M 10.5625 -2.296875 "/></g></g></g><g fill="#ecb378" fill-opacity="1"><g transform="translate(154.014365, 291.75505)"><g><path d="M 4.234375 -2.296875 L 6.296875 -2.296875 L 6.296875 -3.671875 L 5.453125 -3.671875 C 4.640625 -3.671875 4.234375 -3.210938 4.234375 -2.296875 Z M 0 -2.296875 L 1.359375 -2.296875 L 1.328125 -4.546875 C 1.316406 -5.847656 2.019531 -6.628906 3.4375 -6.890625 L 9.25 -6.890625 L 9.25 0 L 0 0 Z M 4.4375 -9.484375 C 4.4375 -9.734375 4.523438 -9.953125 4.703125 -10.140625 C 4.890625 -10.335938 5.109375 -10.4375 5.359375 -10.4375 C 5.628906 -10.4375 5.859375 -10.335938 6.046875 -10.140625 C 6.234375 -9.953125 6.320312 -9.734375 6.3125 -9.484375 C 6.300781 -9.210938 6.207031 -8.992188 6.03125 -8.828125 C 5.851562 -8.660156 5.628906 -8.578125 5.359375 -8.578125 C 5.109375 -8.578125 4.890625 -8.664062 4.703125 -8.84375 C 4.523438 -9.019531 4.4375 -9.234375 4.4375 -9.484375 Z M 4.4375 -9.484375 "/></g></g></g><path stroke-linecap="butt" transform="matrix(0.75, 0, 0, 0.75, 119.531488, 272.195226)" fill="none" stroke-linejoin="miter" d="M 7.713225 15.807408 L 11.718434 15.807408 L 11.718434 24.687617 C 11.718434 25.817825 11.145517 26.796992 10.004892 27.630325 C 9.0101 28.3647 7.8851 28.734492 6.629892 28.734492 C 6.10385 28.734492 5.577808 28.619909 5.051767 28.39595 C 4.770517 28.286575 4.629892 28.203242 4.629892 28.151159 C 4.66635 28.130325 4.8226 28.073034 5.093433 27.9897 C 6.520517 27.4897 7.395517 26.4897 7.713225 25.000117 Z M 8.312183 12.359491 C 8.312183 12.020949 8.431975 11.724074 8.676767 11.474074 C 8.921558 11.218866 9.213225 11.088658 9.556975 11.088658 C 9.911142 11.088658 10.208017 11.218866 10.452809 11.474074 C 10.6976 11.724074 10.817392 12.020949 10.806975 12.359491 C 10.796559 12.713658 10.676767 13.005324 10.437184 13.234491 C 10.202809 13.458449 9.911142 13.573033 9.556975 13.573033 C 9.213225 13.573033 8.921558 13.453241 8.676767 13.218866 C 8.431975 12.984491 8.312183 12.698033 8.312183 12.359491 Z M 26.911143 21.948033 L 29.661143 21.948033 L 29.661143 20.1147 L 28.551768 20.1147 C 27.458018 20.1147 26.911143 20.724075 26.911143 21.948033 Z M 35.937185 21.948033 L 35.937185 25.000117 L 35.150727 25.000117 L 33.598643 23.140742 L 33.598643 24.687617 C 33.598643 25.817825 33.036143 26.796992 31.905935 27.630325 C 30.900727 28.3647 29.76531 28.734492 28.510101 28.734492 C 27.98406 28.734492 27.463226 28.619909 26.937185 28.39595 C 26.666351 28.286575 26.530935 28.203242 26.530935 28.151159 C 26.567393 28.130325 26.718435 28.073034 26.978851 27.9897 C 28.416351 27.4897 29.291351 26.4897 29.598643 25.000117 L 23.051768 25.000117 L 23.051768 18.932408 C 23.051768 17.203241 23.984059 16.161575 25.848643 15.807408 L 33.598643 15.807408 L 33.598643 21.948033 Z M 50.546561 21.948033 L 53.280936 21.948033 L 53.280936 20.1147 L 52.171561 20.1147 C 51.088228 20.1147 50.546561 20.724075 50.546561 21.948033 Z M 44.895519 21.948033 L 46.702811 21.948033 L 46.676769 18.932408 C 46.661144 17.203241 47.593436 16.161575 49.473644 15.807408 L 57.234062 15.807408 L 57.234062 25.000117 L 44.895519 25.000117 Z M 50.812186 12.359491 C 50.812186 12.020949 50.937186 11.724074 51.17677 11.474074 C 51.42677 11.218866 51.713228 11.088658 52.046561 11.088658 C 52.411145 11.088658 52.713228 11.218866 52.952811 11.474074 C 53.202811 11.724074 53.322603 12.020949 53.312186 12.359491 C 53.306978 12.713658 53.181978 13.005324 52.937186 13.234491 C 52.697603 13.458449 52.400728 13.573033 52.046561 13.573033 C 51.713228 13.573033 51.42677 13.453241 51.17677 13.218866 C 50.937186 12.984491 50.812186 12.698033 50.812186 12.359491 Z M 50.812186 12.359491 " stroke="#d97104" stroke-width="0.916223" stroke-opacity="1" stroke-miterlimit="4"/></svg>